<svg width="16" height="16" viewBox="0 0 16 16" fill="none" xmlns="http://www.w3.org/2000/svg">
<g clip-path="url(#clip0_1167_4356)">
<path fill-rule="evenodd" clip-rule="evenodd" d="M0.835711 2.87868C-0.0429688 3.75736 -0.0429688 5.17157 -0.0429688 8C-0.0429688 10.8284 -0.0429688 12.2426 0.835711 13.1213C1.71439 14 3.1286 14 5.95703 14H9.95703C12.7855 14 14.1997 14 15.0784 13.1213C15.957 12.2426 15.957 10.8284 15.957 8C15.957 5.17157 15.957 3.75736 15.0784 2.87868C14.1997 2 12.7855 2 9.95703 2H5.95703C3.1286 2 1.71439 2 0.835711 2.87868ZM2.97885 4.1221C2.494 3.85764 1.88657 4.0363 1.6221 4.52115C1.35764 5.006 1.5363 5.61343 2.02115 5.8779L7.0423 8.6167C7.63925 8.94232 8.36075 8.94232 8.9577 8.6167L13.9789 5.8779C14.4637 5.61343 14.6424 5.006 14.3779 4.52115C14.1134 4.0363 13.506 3.85764 13.0211 4.1221L8 6.86091L2.97885 4.1221Z" fill="white"/>
</g>
<defs>
<clipPath id="clip0_1167_4356">
<rect width="16" height="16" fill="white"/>
</clipPath>
</defs>
</svg>
