<svg width="16" height="16" viewBox="0 0 16 16" fill="none" xmlns="http://www.w3.org/2000/svg">
<path d="M14.6359 1.39867C14.6359 1.39867 16.116 0.816936 15.9927 2.22978C15.9516 2.81155 15.5816 4.8477 15.2938 7.05008L14.307 13.5741C14.307 13.5741 14.2248 14.5299 13.4847 14.6961C12.7446 14.8623 11.6346 14.1144 11.429 13.9481C11.2645 13.8235 8.34544 11.9535 7.31757 11.0393C7.02976 10.79 6.70084 10.2913 7.35866 9.70955L11.6757 5.55414C12.1691 5.0555 12.6624 3.89196 10.6067 5.3048L4.85073 9.25248C4.85073 9.25248 4.19287 9.668 2.95946 9.29403L0.287019 8.46295C0.287019 8.46295 -0.699731 7.83964 0.985963 7.21629C5.09741 5.26322 10.1545 3.26861 14.6359 1.39867Z" fill="white"/>
</svg>
