<svg width="225" height="30" viewBox="0 0 225 30" fill="none" xmlns="http://www.w3.org/2000/svg">
<g clip-path="url(#clip0_1167_4172)">
<path d="M1.11281 28.8786H29.8808V1.12143H1.11309L1.11281 28.8786ZM30.8381 29.8431H0.155823V0.156982H30.8381V29.8431ZM54.2813 13.3164H47.7248V9.63615C47.7248 8.56615 47.6548 7.89837 47.5146 7.63309C47.3746 7.36782 47.0653 7.23504 46.5882 7.23504C46.0482 7.23504 45.7053 7.39643 45.5601 7.71893C45.4149 8.04143 45.3422 8.73893 45.3422 9.81115V19.6456C45.3422 20.6745 45.4149 21.3456 45.5601 21.6595C45.7053 21.9734 46.0326 22.1303 46.5412 22.1303C47.0292 22.1303 47.3486 21.9731 47.499 21.6586C47.6497 21.3439 47.7248 20.6053 47.7248 19.4428V16.7817H54.2813V17.6067C54.2813 19.7984 54.0968 21.3525 53.7285 22.2689C53.3599 23.1859 52.5451 23.9889 51.2835 24.6789C50.0222 25.3686 48.4672 25.7134 46.6191 25.7134C44.6983 25.7134 43.1152 25.4211 41.8694 24.8373C40.6234 24.2534 39.7982 23.4445 39.3933 22.4114C38.9881 21.3781 38.7857 19.8242 38.7857 17.7492V11.5639C38.7857 10.0384 38.8481 8.8942 38.9727 8.13115C39.0972 7.36837 39.4685 6.63393 40.0861 5.92754C40.7035 5.22143 41.5602 4.66559 42.6558 4.26004C43.7511 3.85476 45.0097 3.65198 46.4324 3.65198C48.3636 3.65198 49.9571 3.96559 51.2135 4.59254C52.4696 5.2192 53.2948 6.00087 53.6896 6.93698C54.0839 7.87254 54.2813 9.32865 54.2813 11.305V13.3164ZM56.6331 4.08365H63.2051L63.2363 13.0286C64.4716 13.0025 65.1104 12.427 65.1519 11.3025L65.2763 7.17004C65.3176 5.64448 65.6709 4.61559 66.3353 4.08393H72.3933C71.8016 4.59809 71.511 5.6617 71.5214 7.27448L71.5526 10.91C71.5731 13.1073 70.0987 14.3584 67.1296 14.6634C70.0987 14.9686 71.5731 16.2373 71.5526 18.4689L71.5214 21.8428C71.511 23.447 71.8016 24.5892 72.3933 25.2692H66.3353C65.6293 24.7375 65.2763 23.7086 65.2763 22.1831V18.0503C65.2763 17.527 65.0868 17.1064 64.7079 16.7881C64.3289 16.47 63.8384 16.3064 63.2363 16.2978L63.2051 25.2689H56.6331V4.08365ZM89.0412 13.3164H82.4849V9.63615C82.4849 8.56615 82.4149 7.89837 82.2747 7.63309C82.1344 7.36782 81.8254 7.23504 81.348 7.23504C80.808 7.23504 80.4654 7.39643 80.3202 7.71893C80.1748 8.04143 80.102 8.73893 80.102 9.81115V19.6456C80.102 20.6745 80.1748 21.3456 80.3202 21.6595C80.4654 21.9734 80.7924 22.1303 81.3013 22.1303C81.7893 22.1303 82.1084 21.9731 82.2591 21.6586C82.4095 21.3439 82.4849 20.6053 82.4849 19.4428V16.7817H89.0412V17.6067C89.0412 19.7984 88.8569 21.3525 88.4886 22.2689C88.1197 23.1859 87.3049 23.9889 86.0436 24.6789C84.782 25.3686 83.227 25.7134 81.3792 25.7134C79.4584 25.7134 77.8753 25.4211 76.6293 24.8373C75.3835 24.2534 74.5581 23.4445 74.1531 22.4114C73.7482 21.3781 73.5458 19.8242 73.5458 17.7492V11.5639C73.5458 10.0384 73.6082 8.8942 73.7326 8.13115C73.8573 7.36837 74.2283 6.63393 74.8462 5.92754C75.4639 5.22143 76.3203 4.66559 77.4156 4.26004C78.511 3.85476 79.7698 3.65198 81.1922 3.65198C83.1234 3.65198 84.7169 3.96559 85.9733 4.59254C87.2294 5.2192 88.0549 6.00087 88.4497 6.93698C88.844 7.87254 89.0412 9.32865 89.0412 11.305V13.3164ZM113.024 25.2695H106.453V8.32059H104.537V20.3123C104.537 21.8906 104.295 23.0242 103.81 23.7128C103.325 24.4017 102.59 24.8331 101.605 25.0073C100.619 25.182 99.0475 25.2689 96.8896 25.2689H95.8626V21.6206C96.6618 21.6206 97.2119 21.5378 97.5133 21.372C97.8143 21.2067 97.965 20.6398 97.965 19.672V4.08337H113.024V25.2695ZM124.066 9.53698C124.066 8.5517 124.001 7.92198 123.871 7.64726C123.741 7.37254 123.474 7.23532 123.069 7.23532C122.727 7.23532 122.464 7.34643 122.283 7.56865C122.101 7.79087 122.01 8.44726 122.01 9.53698V19.4234C122.01 20.6528 122.07 21.4114 122.189 21.6989C122.309 21.9867 122.586 22.1306 123.023 22.1306C123.469 22.1306 123.755 21.965 123.879 21.6336C124.004 21.3025 124.066 20.5134 124.066 19.2667V9.53698ZM130.622 16.4942C130.622 18.6214 130.563 20.1275 130.443 21.0125C130.324 21.8973 129.95 22.7059 129.322 23.4384C128.694 24.1706 127.845 24.7328 126.776 25.1253C125.706 25.5175 124.46 25.7136 123.038 25.7136C121.688 25.7136 120.476 25.5284 119.402 25.1581C118.327 24.7875 117.463 24.2317 116.809 23.4906C116.155 22.7495 115.765 21.9434 115.641 21.0711C115.516 20.1995 115.454 18.6739 115.454 16.4942V12.8717C115.454 10.7445 115.513 9.23837 115.633 8.35337C115.752 7.46865 116.126 6.66004 116.754 5.92754C117.382 5.19532 118.231 4.63309 119.3 4.24059C120.369 3.84837 121.615 3.65198 123.038 3.65198C124.387 3.65198 125.6 3.83754 126.674 4.20782C127.749 4.57865 128.613 5.1342 129.267 5.87532C129.922 6.61643 130.311 7.42282 130.435 8.29476C130.56 9.16643 130.622 10.6923 130.622 12.8717V16.4939V16.4942ZM153.297 4.0967V25.2689H147.567L147.558 10.9753L145.276 25.2692H141.212L138.806 11.3025L138.799 25.2692H133.068V4.0967H141.551C141.803 5.36976 142.062 6.87004 142.329 8.59781L143.26 13.9834L144.768 4.0967H153.297ZM164.635 19.672V16.612C164.635 15.7225 164.528 15.182 164.316 14.9903C164.102 14.7986 163.498 14.6895 162.501 14.6634V21.6206C163.332 21.6206 163.895 21.5311 164.19 21.3525C164.486 21.1739 164.635 20.6136 164.635 19.672ZM171.206 20.3128C171.206 21.8906 170.962 23.0245 170.475 23.7128C169.987 24.4017 169.247 24.8334 168.255 25.0075C167.264 25.1823 165.683 25.2692 163.514 25.2692H155.93V4.08365H168.777V7.75865H162.501V11.3417H163.514C165.539 11.3417 167.069 11.442 168.108 11.6425C169.146 11.8431 169.922 12.2856 170.436 12.9698C170.949 13.6542 171.206 14.7286 171.206 16.1934V20.3128ZM181.386 17.7103C181.054 15.3123 180.721 12.3481 180.387 8.81754C179.72 12.872 179.299 15.8364 179.129 17.7103H181.386ZM184.86 4.0967L188.61 25.2689H181.909L181.558 21.4634H179.212L178.818 25.2689H172.04L175.384 4.0967H184.86ZM196.279 7.7192V13.107C196.44 13.115 196.601 13.1194 196.762 13.12C197.365 13.12 197.782 12.9959 198.016 12.7475C198.251 12.4989 198.366 11.9825 198.366 11.1975V9.45865C198.366 8.73504 198.232 8.2642 197.962 8.04615C197.691 7.82837 197.131 7.7192 196.279 7.7192ZM189.724 4.0967H196.327C198.112 4.0967 199.485 4.21448 200.446 4.44976C201.407 4.68532 202.128 5.02532 202.611 5.46976C203.093 5.91448 203.42 6.45309 203.592 7.08504C203.764 7.71726 203.849 8.69559 203.849 10.0209V11.8648C203.849 13.2161 203.683 14.2014 203.35 14.8203C203.018 15.4395 202.408 15.9145 201.521 16.2456C200.632 16.5773 199.473 16.7428 198.04 16.7428H196.279V25.2692H189.724V4.0967ZM216.572 20.8228V8.26837H214.625V8.42531C214.625 12.4795 214.107 16.612 213.068 20.8225L216.572 20.8228ZM224.483 28.9178H219.952V25.2692H209.362V28.9178H204.845V20.8489H206.185C206.891 19.1142 207.469 16.8323 207.922 14.0031C208.372 11.1739 208.598 8.08087 208.598 4.72448V4.08337H223.145V20.8223H224.483V28.9178Z" fill="#E31E24"/>
<path d="M16.4381 11.1503L16.5663 11.127C17.6163 10.9372 18.4407 10.6186 19.0499 10.1795H17.4399C17.188 10.3288 16.921 10.4502 16.6434 10.5414L16.4381 10.6109V8.90252H15.0931V10.8545L14.9501 10.8661C14.6094 10.8936 14.2677 10.9069 13.9259 10.9061C12.6058 10.9061 11.4762 10.6742 10.5428 10.2022C9.64401 9.75225 9.13106 9.19336 9.13106 8.50586C9.13106 7.83419 9.66889 7.28919 10.5977 6.84752C11.541 6.39836 12.6522 6.17641 13.9259 6.17641C15.4524 6.17641 16.6639 6.42919 17.5433 6.95058H19.0764C18.6252 6.60308 18.0081 6.32225 17.2165 6.11364C16.2792 5.86502 15.1943 5.73975 13.9606 5.73975C12.2213 5.73975 10.7363 6.0253 9.49964 6.59058C8.24981 7.16225 7.69885 7.80919 7.69885 8.50586C7.69885 9.23308 8.2386 9.89641 9.44933 10.4736C10.6497 11.0459 12.1396 11.3356 13.9259 11.3356C14.2742 11.3356 14.6086 11.3267 14.9288 11.3095L15.0931 11.3006V18.6772H16.4381V11.1503Z" fill="#E31E24"/>
<path fill-rule="evenodd" clip-rule="evenodd" d="M3.97042 23.2925H13.2467L6.78288 11.0158L6.66148 10.7858H8.08493L8.12868 10.8692L15.2233 24.3436L15.3444 24.5736H3.81429V23.2925H3.97042ZM19.4887 9.86583H17.3516L17.3139 9.88945C17.146 9.99417 16.9582 10.0875 16.7498 10.1692V8.58917H14.7811V10.5647C14.5113 10.5833 14.2261 10.5925 13.9259 10.5925C12.641 10.5925 11.5618 10.3667 10.6825 9.92195C9.81408 9.48722 9.44304 9.00861 9.44304 8.50583C9.44304 8.02972 9.8231 7.56278 10.7314 7.13083C11.6244 6.70556 12.6878 6.49 13.9259 6.49C15.4461 6.49 16.6054 6.74611 17.4197 7.24139L17.4569 7.26417H19.8603L19.6 6.9975C19.0849 6.46972 18.3108 6.07806 17.2964 5.81056C16.3271 5.55361 15.2145 5.42611 13.9606 5.42611C12.1882 5.42611 10.6568 5.71694 9.37058 6.30528C8.09778 6.88722 7.38688 7.61167 7.38688 8.50583C7.38688 9.42139 8.07372 10.1644 9.31562 10.7569C10.5693 11.3542 12.1076 11.6489 13.9256 11.6489C14.2203 11.6489 14.5058 11.6428 14.7814 11.6306V18.9906H16.7498V14.8822L18.99 18.5294C18.2353 18.6756 17.5406 18.8933 16.9051 19.1839C15.6326 19.7656 14.9217 20.4906 14.9217 21.3847C14.9217 22.3003 15.6083 23.0431 16.8507 23.6356C18.1041 24.2328 19.6427 24.5278 21.4607 24.5278C24.1208 24.5278 26.0263 24.0381 27.1288 23.0167L27.4227 22.7444H24.8867L24.849 22.7681C24.1058 23.23 22.9836 23.4714 21.4604 23.4714C20.1758 23.4714 19.0969 23.2453 18.217 22.8008C17.3489 22.3661 16.9776 21.8869 16.9776 21.3847C16.9776 20.9083 17.3579 20.4417 18.266 20.0097C18.6986 19.8061 19.1527 19.6531 19.6194 19.5536L20.4627 20.9261L20.5083 21.0006H22.6914L22.5328 20.7578L21.6266 19.3697C23.0657 19.3878 24.1703 19.6431 24.9548 20.1203L24.992 20.1428H27.3948L27.1348 19.8764C26.6197 19.3486 25.8461 18.9564 24.8315 18.6892C23.8622 18.4322 22.7496 18.305 21.4954 18.305C21.3067 18.305 21.1208 18.3081 20.9376 18.3147L18.5448 14.65L22.7556 11.3911L23.1184 11.1106H20.8865L20.8435 11.1447L16.7504 14.4292V11.4114C17.9772 11.1733 18.9307 10.7531 19.5945 10.1378L19.8885 9.86583H19.4887ZM14.9501 10.8661L15.0931 10.8542V8.90278H16.4381V10.6108L16.6434 10.5414C16.921 10.4504 17.1881 10.3291 17.4399 10.1797H19.0499C18.4407 10.6189 17.616 10.9375 16.5663 11.1272L16.4378 11.1506V18.6772H15.0931V11.3006L14.9291 11.3094C14.5949 11.3271 14.2602 11.3358 13.9256 11.3356C12.1396 11.3356 10.6499 11.0456 9.44933 10.4736C8.23887 9.89639 7.69886 9.23306 7.69886 8.50583C7.69886 7.80917 8.24981 7.16222 9.49964 6.59056C10.7363 6.02528 12.2213 5.73972 13.9606 5.73972C15.1943 5.73972 16.2792 5.865 17.2165 6.11361C18.0081 6.32195 18.6252 6.60306 19.0764 6.95056H17.5436C16.6637 6.42917 15.4524 6.17639 13.9259 6.17639C12.6522 6.17639 11.5413 6.39833 10.5977 6.8475C9.66889 7.28917 9.13106 7.83417 9.13106 8.50583C9.13106 9.19333 9.64401 9.75222 10.5428 10.2022C11.4762 10.6742 12.6058 10.9061 13.9259 10.9061C14.2871 10.9061 14.6286 10.8928 14.9501 10.8661ZM19.4884 10.0228H19.2519C19.1874 10.0767 19.1201 10.1289 19.0496 10.1794H19.489V10.0228H19.4884ZM0.957264 28.8786V29.0356H30.0367V0.964444H0.957264V28.8786ZM30.8381 30H30.9939V0H0V30H30.8381ZM29.725 1.27778V28.7222H1.26897V1.27806L29.725 1.27778ZM30.682 0.313333V29.6864H0.311979V0.313333H30.682Z" fill="#E31E24"/>
<path d="M19.3074 10.1794C19.3703 10.1285 19.4304 10.0763 19.4884 10.0227H19.2519C19.1874 10.0766 19.1201 10.1288 19.0496 10.1794H19.3074Z" fill="#E31E24"/>
<path d="M19.4884 10.0227C19.4298 10.0769 19.3694 10.1291 19.3074 10.1794H19.4887L19.4884 10.0227Z" fill="#E31E24"/>
</g>
<defs>
<clipPath id="clip0_1167_4172">
<rect width="224.483" height="30" fill="white"/>
</clipPath>
</defs>
</svg>
