<svg width="35" height="32" viewBox="0 0 35 32" fill="none" xmlns="http://www.w3.org/2000/svg">
<g clip-path="url(#clip0_1167_4180)">
<path fill-rule="evenodd" clip-rule="evenodd" d="M16.8818 30.7637C25.2407 30.7637 32.0165 24.1536 32.0165 16C32.0165 7.84533 25.2407 1.23627 16.8807 1.23627C8.52398 1.23627 1.75038 7.84533 1.75038 16C1.75038 24.1536 8.52398 30.7637 16.8807 30.7637H16.8818ZM16.8818 0C25.9427 0 33.2841 7.16373 33.2841 16C33.2841 24.8363 25.9406 32 16.8807 32C7.82631 32 0.482788 24.8363 0.482788 16C0.482788 7.16373 7.82522 0 16.8818 0ZM16.8818 27.3333C16.3424 27.3333 16.0171 26.9813 15.9974 26.5013C15.8795 26.7179 15.7267 26.864 15.4974 26.9099C15.2697 26.951 15.0346 26.9243 14.8226 26.8331C14.6131 26.7511 14.4425 26.5955 14.3444 26.3968C14.2418 26.1941 14.2756 25.9861 14.3488 25.7429C14.2362 25.9062 14.0667 26.0239 13.872 26.0744C13.6772 26.1248 13.4703 26.1044 13.2897 26.0171C12.7722 25.7824 12.5833 25.3557 12.7951 24.8704C13.4349 23.3984 14.0693 21.9531 14.7113 20.4832C14.7691 20.3499 14.8183 20.2123 14.8827 20.0789C14.9395 19.9616 14.9755 19.8741 15.0301 19.8037C15.0708 19.75 15.122 19.7047 15.1808 19.6704C14.1883 19.7771 13.7112 20.1557 13.4491 20.3243C13.3793 20.3691 13.3836 20.3765 13.115 20.2944C12.996 20.2605 12.8681 20.274 12.7591 20.3317C12.6379 20.3947 12.5218 20.4667 12.4119 20.5472C12.056 20.8171 11.6924 21.0763 11.3561 21.3675C11.2 21.5029 10.974 21.7344 11.0046 21.9435C11.0297 22.1376 11.5177 22.5877 11.664 22.7221C12.009 23.0389 11.4861 23.6363 10.7884 23.5797C10.974 23.3899 11.0177 23.2288 10.9937 23.0869C10.9249 23.0869 10.7928 23.0987 10.6661 22.9899C10.5165 22.8576 10.5831 22.4704 10.4445 22.3381C10.1988 22.1056 9.39634 22.0843 8.91594 22.0651C8.71395 22.0565 8.50323 22.0043 8.51743 21.6992C8.21281 21.7195 8.14949 21.9392 8.14949 22.1376C7.88745 21.9936 7.66254 21.3035 8.63098 21.1467C8.4672 21.0016 8.19534 20.9493 8.0283 21.1339C7.87108 20.88 8.2685 20.3819 8.98691 20.6624C8.98472 20.6603 9.30899 20.2485 10.2796 21.3024C10.4008 21.2128 10.5231 21.1253 10.6334 21.0251C11.0089 20.6944 11.9545 19.7963 11.9545 19.7963C11.9545 19.2917 12.0331 18.3147 12.7198 17.7291C13.0124 17.4784 13.293 17.3451 13.9132 17.2373C13.9132 17.2373 13.6129 16.7819 13.566 16.6027C13.0255 17.1264 11.9392 17.2832 11.9392 16.4C11.0548 17.2576 10.2327 16.7947 10.2327 16.256C10.2021 16.529 10.1387 16.7975 10.0438 17.056C9.93242 17.3451 9.52735 18.4533 8.4814 18.4533C8.45738 18.8395 8.4552 20.1067 7.20398 20.3904C7.15157 20.4032 7.0817 20.4203 7.04785 20.4608C6.54343 21.0699 4.44388 21.7099 4.1873 21.5381C4.34998 21.424 4.60765 21.2736 4.64805 20.5589C4.67425 20.0864 4.72775 17.6373 4.72775 14.1877C4.72775 12.9664 4.86314 9.01013 8.89629 8.45867C9.5077 8.37547 10.1104 8.4192 10.6323 8.7936C11.3419 9.3088 11.6913 10.1739 11.2732 11.1541C11.2601 11.1904 11.2491 11.2245 11.2295 11.2555C11.0876 11.4901 11.1465 11.6907 11.331 11.8688C11.6673 12.1941 12.0604 12.4128 12.532 12.4661C12.8301 12.5003 13.0768 12.3723 13.2745 12.1739C13.7265 11.7216 14.0333 11.1904 14.1446 10.5664C14.3553 9.38133 14.0289 8.7872 14.0103 8.7488C13.6828 8.11093 12.9851 7.64267 12.1772 7.57547C11.8081 6.9056 10.7458 7.17013 10.7458 7.17013C10.4794 7.22667 10.3855 7.30027 10.32 7.4272C10.32 7.4272 9.85381 6.7392 10.2927 6.46293C10.7327 6.18667 11.7153 6.07253 11.7153 6.07253C11.7153 5.62453 12.4796 5.27573 13.8597 5.51573C15.5301 5.80373 15.8882 5.1712 15.8882 5.1712C15.9581 5.9456 15.3467 6.3456 15.1513 6.4544C15.7845 7.12107 16.67 8.45227 16.8807 10.3424C17.0925 8.45227 17.978 7.12107 18.6112 6.4544C18.4147 6.3456 17.8044 5.9456 17.8743 5.1712C17.8743 5.1712 18.2335 5.8048 19.9028 5.51573C21.284 5.27573 22.0482 5.62453 22.0482 6.07253C22.0482 6.07253 23.0309 6.1856 23.4698 6.46293C23.9087 6.74027 23.4425 7.4272 23.4425 7.4272C23.377 7.2992 23.2831 7.22773 23.0167 7.1712C23.0167 7.1712 21.9544 6.90453 21.5853 7.57653C20.7774 7.64267 20.0808 8.10987 19.7522 8.74987C19.7336 8.7872 19.4268 9.376 19.6179 10.5664C19.7172 11.1915 20.036 11.7216 20.4891 12.1739C20.6857 12.3723 20.9324 12.4992 21.2316 12.4661C21.7021 12.4128 22.0952 12.1931 22.4326 11.8688C22.616 11.6907 22.6739 11.4891 22.533 11.2555C22.5123 11.2245 22.5024 11.1904 22.4893 11.1541C22.0712 10.1749 22.4216 9.3088 23.1313 8.79467C23.6521 8.4192 24.2548 8.3744 24.8651 8.45867C28.8994 9.01013 29.0358 12.9664 29.0358 14.1867C29.0358 17.6373 29.0893 20.0864 29.1145 20.5589C29.1548 21.2736 29.4125 21.424 29.5752 21.5371C29.3186 21.7109 27.2191 21.0699 26.7146 20.4597C26.6797 20.4203 26.612 20.4032 26.5585 20.3904C25.3084 20.1067 25.3062 18.8395 25.2811 18.4544C24.2362 18.4544 23.829 17.3451 23.7187 17.056C23.6238 16.7975 23.5604 16.529 23.5298 16.256C23.5298 16.7947 22.7077 17.2576 21.8233 16.3989C21.8233 17.2843 20.737 17.1264 20.1965 16.6027C20.1485 16.7819 19.8482 17.2373 19.8482 17.2373C20.4706 17.3461 20.7501 17.4784 21.0427 17.728C21.7294 18.3147 21.807 19.2917 21.807 19.7973C21.807 19.7973 22.7536 20.6933 23.128 21.0251C23.2394 21.1253 23.3606 21.2139 23.484 21.3024C24.4524 20.2485 24.7778 20.6603 24.7756 20.6624C25.4929 20.3819 25.8914 20.8811 25.7342 21.1317C25.5672 20.9493 25.2953 21.0016 25.1315 21.1456C26.1 21.3035 25.875 21.9936 25.613 22.1376C25.613 21.9392 25.5497 21.7195 25.2451 21.7003C25.2604 22.0043 25.0485 22.0565 24.8466 22.0651C24.3662 22.0843 23.5637 22.1056 23.318 22.3381C23.1794 22.4704 23.246 22.8576 23.0953 22.9888C22.9708 23.0987 22.8376 23.0859 22.7677 23.0869C22.7448 23.2299 22.7885 23.3899 22.9741 23.5797C22.2753 23.6363 21.7524 23.0389 22.0996 22.7211C22.2437 22.5877 22.7328 22.1376 22.7568 21.9445C22.7885 21.7344 22.5625 21.5029 22.4053 21.3675C22.069 21.0763 21.7065 20.8171 21.3506 20.5472C21.2404 20.4667 21.1239 20.3947 21.0023 20.3317C20.8936 20.2744 20.7662 20.261 20.6475 20.2944C20.38 20.3755 20.3832 20.3691 20.3134 20.3243C20.0513 20.1557 19.5742 19.7771 18.5817 19.6715C18.6406 19.7052 18.6918 19.7502 18.7324 19.8037C18.787 19.8752 18.823 19.9616 18.8798 20.0789C18.9442 20.2123 18.9934 20.3499 19.0512 20.4843C19.6932 21.9531 20.3286 23.3984 20.9663 24.8704C21.1792 25.3568 20.9903 25.7835 20.4739 26.0171C20.2934 26.1049 20.0863 26.1255 19.8914 26.075C19.6965 26.0246 19.5271 25.9065 19.4148 25.7429C19.4869 25.9861 19.5218 26.1952 19.4181 26.3968C19.3207 26.5958 19.1504 26.7518 18.941 26.8341C18.728 26.9248 18.4933 26.9515 18.264 26.9088C18.0347 26.8651 17.8819 26.7179 17.7651 26.5013C17.7454 26.9813 17.4201 27.3333 16.8807 27.3333H16.8818Z" fill="#E31E24"/>
</g>
<defs>
<clipPath id="clip0_1167_4180">
<rect width="33.8462" height="32" fill="white" transform="translate(0.482788)"/>
</clipPath>
</defs>
</svg>
